<mxfile host="Electron" modified="2023-06-14T07:36:30.276Z" agent="Mozilla/5.0 (Macintosh; Intel Mac OS X 10_15_7) AppleWebKit/537.36 (KHTML, like Gecko) draw.io/21.1.2 Chrome/106.0.5249.199 Electron/21.4.3 Safari/537.36" etag="I0djnbwvHnyqA60ctJvj" version="21.1.2" type="device">
  <diagram id="9n8iXTs6fCy3IT47IccP" name="structure">
    <mxGraphModel dx="1194" dy="775" grid="1" gridSize="10" guides="1" tooltips="1" connect="1" arrows="1" fold="1" page="1" pageScale="1" pageWidth="827" pageHeight="1169" math="0" shadow="0">
      <root>
        <mxCell id="0" />
        <mxCell id="1" parent="0" />
        <mxCell id="5pINv8osB3MnGGa4mzIO-1" value="OMAGServerPlatform" style="rounded=0;whiteSpace=wrap;html=1;verticalAlign=top;fillColor=#b0e3e6;strokeColor=#0e8088;" parent="1" vertex="1">
          <mxGeometry x="30" y="212" width="400" height="518" as="geometry" />
        </mxCell>
        <mxCell id="5pINv8osB3MnGGa4mzIO-2" value="Platform Chassis" style="rounded=0;whiteSpace=wrap;html=1;fillColor=#fad7ac;strokeColor=#b46504;" parent="1" vertex="1">
          <mxGeometry x="40" y="658" width="380" height="60" as="geometry" />
        </mxCell>
        <mxCell id="5pINv8osB3MnGGa4mzIO-3" value="Open Metadata Repository Services (OMRS)" style="rounded=0;whiteSpace=wrap;html=1;" parent="1" vertex="1">
          <mxGeometry x="40" y="521" width="180" height="60" as="geometry" />
        </mxCell>
        <mxCell id="5pINv8osB3MnGGa4mzIO-4" value="Framework Services" style="rounded=0;whiteSpace=wrap;html=1;" parent="1" vertex="1">
          <mxGeometry x="230" y="450" width="190" height="60" as="geometry" />
        </mxCell>
        <mxCell id="5pINv8osB3MnGGa4mzIO-5" value="Governance Server Services" style="rounded=0;whiteSpace=wrap;html=1;" parent="1" vertex="1">
          <mxGeometry x="230" y="521" width="190" height="60" as="geometry" />
        </mxCell>
        <mxCell id="5pINv8osB3MnGGa4mzIO-9" value="Registered Services" style="rounded=0;whiteSpace=wrap;html=1;verticalAlign=top;" parent="1" vertex="1">
          <mxGeometry x="40" y="250" width="380" height="190" as="geometry" />
        </mxCell>
        <mxCell id="5pINv8osB3MnGGa4mzIO-10" value="Administration Services" style="rounded=0;whiteSpace=wrap;html=1;" parent="1" vertex="1">
          <mxGeometry x="40" y="589" width="180" height="60" as="geometry" />
        </mxCell>
        <mxCell id="5pINv8osB3MnGGa4mzIO-11" value="Platform Services" style="rounded=0;whiteSpace=wrap;html=1;" parent="1" vertex="1">
          <mxGeometry x="230" y="589" width="190" height="60" as="geometry" />
        </mxCell>
        <mxCell id="tQW9GtEJ1VcCBCQTBOvx-1" value="Open Metadata Access Services (OMASs)" style="rounded=1;whiteSpace=wrap;html=1;" parent="1" vertex="1">
          <mxGeometry x="60" y="290" width="150" height="60" as="geometry" />
        </mxCell>
        <mxCell id="tQW9GtEJ1VcCBCQTBOvx-2" value="Open Metadata Engine Services (OMESs)" style="rounded=1;whiteSpace=wrap;html=1;" parent="1" vertex="1">
          <mxGeometry x="240" y="290" width="150" height="60" as="geometry" />
        </mxCell>
        <mxCell id="tQW9GtEJ1VcCBCQTBOvx-3" value="Open Metadata Integration Services (OMISs)" style="rounded=1;whiteSpace=wrap;html=1;" parent="1" vertex="1">
          <mxGeometry x="60" y="360" width="150" height="60" as="geometry" />
        </mxCell>
        <mxCell id="tQW9GtEJ1VcCBCQTBOvx-4" value="Open Metadata View Services (OMVSs)" style="rounded=1;whiteSpace=wrap;html=1;" parent="1" vertex="1">
          <mxGeometry x="240" y="360" width="150" height="60" as="geometry" />
        </mxCell>
        <mxCell id="-xZDKtd2q0-F_WubDvb--1" value="Border =10" style="text;html=1;align=center;verticalAlign=middle;resizable=0;points=[];autosize=1;strokeColor=none;fillColor=none;" parent="1" vertex="1">
          <mxGeometry x="190" y="40" width="80" height="30" as="geometry" />
        </mxCell>
        <mxCell id="T3H8PeGoGKEwfS6NKueg-1" value="Common Services" style="rounded=0;whiteSpace=wrap;html=1;" parent="1" vertex="1">
          <mxGeometry x="40" y="450" width="180" height="60" as="geometry" />
        </mxCell>
      </root>
    </mxGraphModel>
  </diagram>
</mxfile>
